<?xml version="1.0" encoding="iso-8859-1"?>
<!-- Generator: Adobe Illustrator 16.0.0, SVG Export Plug-In . SVG Version: 6.00 Build 0)  -->
<!DOCTYPE svg PUBLIC "-//W3C//DTD SVG 1.1//EN" "http://www.w3.org/Graphics/SVG/1.1/DTD/svg11.dtd">
<svg version="1.1" id="Capa_1" xmlns="http://www.w3.org/2000/svg" xmlns:xlink="http://www.w3.org/1999/xlink" x="0px" y="0px"
	 width="373.618px" height="373.618px" viewBox="0 0 373.618 373.618" style="enable-background:new 0 0 373.618 373.618;"
	 xml:space="preserve">
<g>
	<path d="M372.885,74.838c-0.548-1.535-1.334-2.99-2.624-4.153l-74.83-68.034c-0.061-0.058-0.134-0.07-0.195-0.125
		c-0.949-0.825-2.009-1.446-3.117-1.86c-0.141-0.049-0.28-0.08-0.427-0.128c-0.925-0.301-1.888-0.463-2.85-0.493
		c-0.085,0-0.17-0.045-0.268-0.045H10.211H0.009v10.208V288.57c0,0.104,0.048,0.189,0.055,0.305
		c0.034,0.975,0.201,1.942,0.505,2.887c0.046,0.14,0.076,0.286,0.131,0.408c0.426,1.126,1.069,2.186,1.903,3.136
		c0.049,0.061,0.061,0.128,0.119,0.188l69.161,74.836c0.868,0.926,1.885,1.638,2.962,2.174v1.114h4.54h294.225V74.838H372.885z
		 M284.628,20.407l11.996,10.912H45.757L34.845,20.407H284.628z M74.845,343.452L74.845,343.452L20.417,284.57V34.845l15.351,15.351
		v6.927v99.835l23.446,18.791V73.633l15.631,15.631V343.452z M71.554,57.116h253.445l19.486,17.713H89.267L71.554,57.116z
		 M353.204,353.195H95.247V95.243h257.958V353.195z M352.255,273.379L327.91,128.971l-220.117,37.107l24.342,144.407
		L352.255,273.379z M312.571,150.526l18.128,107.52L147.473,288.93l-18.125-107.519L312.571,150.526z M156.814,220.768
		l-3.666-21.769l142.684-24.043l3.672,21.772L156.814,220.768z M272.962,223.581l3.665,21.763l-82.228,13.865l-3.666-21.763
		L272.962,223.581z"/>
</g>
<g>
</g>
<g>
</g>
<g>
</g>
<g>
</g>
<g>
</g>
<g>
</g>
<g>
</g>
<g>
</g>
<g>
</g>
<g>
</g>
<g>
</g>
<g>
</g>
<g>
</g>
<g>
</g>
<g>
</g>
</svg>
